<svg width="347" height="84" viewBox="0 0 347 84" fill="none" xmlns="http://www.w3.org/2000/svg">
<g filter="url(#filter0_d_75_1981)">
<path d="M331.586 28.2467L320.14 33.8984C319.518 32.9784 318.707 32.2557 317.707 31.7303C316.699 31.1849 315.551 30.8986 314.264 30.8716C312.989 30.816 311.609 31.0999 310.122 31.7233C308.134 32.5574 306.634 33.6827 305.622 35.0992C304.602 36.4956 304.382 37.8867 304.963 39.2725C305.427 40.3772 306.26 41.1258 307.464 41.5183C308.668 41.9108 310.442 41.8873 312.784 41.4478L321.867 39.6216C326.754 38.6583 330.732 38.7376 333.8 39.8595C336.869 40.9814 339.103 43.2094 340.501 46.5435C341.773 49.5763 341.996 52.6124 341.169 55.6519C340.362 58.683 338.681 61.49 336.128 64.0729C333.585 66.6273 330.306 68.747 326.289 70.432C320.163 73.0016 314.747 73.7735 310.042 72.7477C305.348 71.6933 301.763 69.0874 299.287 64.93L311.633 58.972C312.798 60.6798 314.32 61.7183 316.199 62.0874C318.069 62.4365 320.15 62.1307 322.439 61.1703C324.689 60.2267 326.315 59.0366 327.319 57.6C328.334 56.135 328.561 54.7053 328 53.311C327.491 52.1545 326.599 51.4069 325.323 51.0682C324.039 50.7094 322.308 50.7504 320.131 51.1912L311.447 52.956C306.549 53.9479 302.528 53.7925 299.383 52.4898C296.259 51.1787 293.972 48.7959 292.523 45.3413C291.276 42.3687 291.005 39.4709 291.71 36.6478C292.436 33.8163 294.02 31.2031 296.464 28.8081C298.928 26.4047 302.138 24.3731 306.095 22.7134C311.94 20.2617 317.057 19.5676 321.448 20.631C325.858 21.686 329.238 24.2246 331.586 28.2467Z" fill="black"/>
<path d="M260.435 69.3592L266.949 19.602L280.327 21.3534L279.191 30.035L279.709 30.1029C281.02 27.1334 282.848 25.0003 285.193 23.7037C287.54 22.3855 290.106 21.9087 292.892 22.2735C293.583 22.3639 294.323 22.5047 295.111 22.6956C295.898 22.8866 296.585 23.0973 297.17 23.3276L295.566 35.5726C294.944 35.2934 294.07 35.0033 292.946 34.7023C291.821 34.4013 290.783 34.1886 289.833 34.0642C287.803 33.7984 285.931 34.0037 284.217 34.6799C282.527 35.3373 281.117 36.3827 279.984 37.8161C278.874 39.2522 278.186 40.9853 277.92 43.0154L274.235 71.1658L260.435 69.3592Z" fill="black"/>
<path d="M241.91 71.8844C236.841 72.8631 232.281 72.679 228.227 71.3322C224.191 69.9599 220.824 67.5711 218.126 64.1658C215.423 60.7391 213.57 56.4275 212.567 51.2309C211.588 46.1626 211.713 41.5245 212.941 37.3166C214.169 33.1088 216.362 29.5907 219.521 26.7626C222.701 23.9303 226.707 22.0475 231.54 21.1142C234.791 20.4865 237.918 20.4261 240.922 20.933C243.943 21.4144 246.701 22.4899 249.198 24.1596C251.715 25.8251 253.866 28.1162 255.649 31.0327C257.428 33.9278 258.722 37.4711 259.532 41.6626L260.257 45.4157L218.652 53.4498L217.016 44.9812L245.758 39.4311C245.378 37.4636 244.614 35.8033 243.465 34.4502C242.317 33.097 240.901 32.1393 239.217 31.5771C237.551 30.9894 235.723 30.8875 233.734 31.2716C231.66 31.6722 229.914 32.5085 228.496 33.7805C227.095 35.0271 226.1 36.539 225.512 38.3163C224.919 40.0723 224.8 41.9254 225.155 43.8755L226.709 51.9271C227.18 54.365 228.036 56.3847 229.277 57.9863C230.539 59.5837 232.097 60.7025 233.951 61.3427C235.805 61.9829 237.876 62.0821 240.164 61.6403C241.683 61.3471 243.032 60.8648 244.211 60.1934C245.39 59.5221 246.346 58.672 247.079 57.6431C247.812 56.6143 248.294 55.4342 248.525 54.1031L261.325 52.4965C261.269 55.6571 260.466 58.5628 258.915 61.2137C257.381 63.8391 255.175 66.0841 252.296 67.9487C249.435 69.7879 245.973 71.0997 241.91 71.8844Z" fill="black"/>
<path d="M179.861 56.5269L180.726 39.8547L182.749 39.9557L199.753 21.7345L215.709 22.5316L192.883 46.6444L189.587 46.4797L179.861 56.5269ZM166.545 70.32L169.883 3.49426L183.784 4.18864L180.445 71.0144L166.545 70.32ZM197.87 71.8848L184.212 49.3187L193.969 39.9601L214.152 72.6982L197.87 71.8848Z" fill="black"/>
<path d="M130.108 43.3746L132.693 72.2705L118.831 73.5106L114.36 23.5284L127.571 22.3465L128.36 31.165L128.946 31.1126C129.792 28.1067 131.441 25.6412 133.893 23.7162C136.343 21.7696 139.423 20.6303 143.132 20.2985C146.603 19.988 149.698 20.4765 152.415 21.7641C155.132 23.0518 157.333 25.0416 159.017 27.7337C160.699 30.4041 161.714 33.6809 162.061 37.5641L164.908 69.3887L151.046 70.6288L148.42 41.2772C148.168 38.2165 147.174 35.9 145.437 34.3279C143.698 32.7341 141.44 32.0613 138.663 32.3097C136.798 32.4766 135.185 33.0255 133.825 33.9562C132.487 34.885 131.485 36.1555 130.82 37.7675C130.175 39.3559 129.938 41.2249 130.108 43.3746Z" fill="black"/>
<path d="M82.6145 71.9115C77.661 70.8085 73.6115 68.8022 70.4661 65.8928C67.3466 62.9667 65.2303 59.3939 64.117 55.1741C63.0085 50.9331 63.0129 46.304 64.1301 41.2867C65.2568 36.2269 67.2195 32.0227 70.018 28.674C72.8213 25.3041 76.2537 22.9668 80.3152 21.6622C84.4028 20.341 88.9233 20.2319 93.8768 21.3349C98.8302 22.438 102.867 24.4525 105.986 27.3785C109.132 30.288 111.259 33.8632 112.367 38.1042C113.48 42.324 113.474 46.9637 112.347 52.0235C111.23 57.0408 109.269 61.2344 106.466 64.6043C103.668 67.953 100.225 70.2879 96.137 71.6091C92.0755 72.9138 87.568 73.0146 82.6145 71.9115ZM85.0216 61.4022C87.2751 61.904 89.2986 61.6852 91.0921 60.7458C92.8903 59.785 94.4206 58.2738 95.683 56.2119C96.9667 54.1548 97.9257 51.7019 98.5601 48.8531C99.1945 46.0043 99.3669 43.3762 99.0773 40.9688C98.8091 38.5661 98.0646 36.5483 96.844 34.9153C95.6233 33.2824 93.8862 32.215 91.6327 31.7132C89.3579 31.2067 87.3002 31.429 85.4594 32.3803C83.64 33.3363 82.0884 34.8428 80.8047 36.8999C79.5423 38.9617 78.5939 41.417 77.9596 44.2658C77.3252 47.1146 77.1422 49.7403 77.4104 52.143C77.7 54.5504 78.4657 56.573 79.7076 58.2107C80.9755 59.8318 82.7468 60.8957 85.0216 61.4022Z" fill="black"/>
<path d="M17.5383 75.9364L4.50873 10.3082L30.7856 5.09131C35.6137 4.13275 39.7828 4.04892 43.2929 4.83981C46.8029 5.6307 49.6221 7.13609 51.7504 9.35598C53.8745 11.5545 55.2632 14.2988 55.9163 17.5887C56.4253 20.1523 56.36 22.5079 55.7206 24.6556C55.0769 26.7819 53.9808 28.6427 52.4322 30.238C50.9008 31.8078 49.0431 33.0759 46.859 34.0425L46.9862 34.6834C49.507 34.294 51.9862 34.5345 54.424 35.4051C56.8832 36.2714 59.0296 37.7438 60.8634 39.8223C62.693 41.8794 63.928 44.5209 64.5685 47.7468C65.2598 51.229 65.0117 54.5092 63.8242 57.5872C62.6538 60.6397 60.5485 63.2893 57.5083 65.5361C54.4681 67.7829 50.4913 69.394 45.5777 70.3696L17.5383 75.9364ZM29.1616 61.8377L40.4735 59.5919C44.3403 58.8242 47.0139 57.5273 48.4944 55.7012C49.9707 53.8537 50.4628 51.6909 49.9708 49.2127C49.6103 47.3968 48.8542 45.8815 47.7026 44.6668C46.551 43.4521 45.085 42.6107 43.3044 42.1426C41.5452 41.6703 39.5548 41.6546 37.333 42.0957L25.7006 44.4052L29.1616 61.8377ZM23.8365 35.016L34.123 32.9738C36.0243 32.5963 37.6463 31.9301 38.9889 30.9752C40.3486 29.9946 41.3327 28.8 41.9412 27.3913C42.5711 25.9783 42.7143 24.4066 42.3707 22.6762C41.8999 20.3049 40.6765 18.5604 38.7004 17.4427C36.7456 16.3209 34.2301 16.0653 31.1538 16.6761L20.611 18.7692L23.8365 35.016Z" fill="black"/>
</g>
<defs>
<filter id="filter0_d_75_1981" x="0.508728" y="3.49426" width="345.149" height="80.4421" filterUnits="userSpaceOnUse" color-interpolation-filters="sRGB">
<feFlood flood-opacity="0" result="BackgroundImageFix"/>
<feColorMatrix in="SourceAlpha" type="matrix" values="0 0 0 0 0 0 0 0 0 0 0 0 0 0 0 0 0 0 127 0" result="hardAlpha"/>
<feOffset dy="4"/>
<feGaussianBlur stdDeviation="2"/>
<feComposite in2="hardAlpha" operator="out"/>
<feColorMatrix type="matrix" values="0 0 0 0 0 0 0 0 0 0 0 0 0 0 0 0 0 0 0.25 0"/>
<feBlend mode="normal" in2="BackgroundImageFix" result="effect1_dropShadow_75_1981"/>
<feBlend mode="normal" in="SourceGraphic" in2="effect1_dropShadow_75_1981" result="shape"/>
</filter>
</defs>
</svg>
